<svg width="42" height="53" viewBox="0 0 42 53" fill="none" xmlns="http://www.w3.org/2000/svg">
<path d="M20.873 28.8C23.2423 28.8 25.5145 27.8588 27.1899 26.1835C28.8652 24.5082 29.8064 22.236 29.8064 19.8667C29.8064 17.4974 28.8652 15.2252 27.1899 13.5499C25.5145 11.8745 23.2423 10.9333 20.873 10.9333C18.5038 10.9333 16.2315 11.8745 14.5562 13.5499C12.8809 15.2252 11.9397 17.4974 11.9397 19.8667C11.9397 22.236 12.8809 24.5082 14.5562 26.1835C16.2315 27.8588 18.5038 28.8 20.873 28.8Z" stroke="#1A1A1A" stroke-width="2.66667" stroke-miterlimit="10" stroke-linecap="round"/>
<path d="M20.873 2C3.00635 2 0.0276855 16.888 3.00635 28.1733C5.62769 38.0613 13.4864 44.8187 18.6704 50.36C18.9495 50.6667 19.2896 50.9116 19.6689 51.0793C20.0482 51.2469 20.4583 51.3335 20.873 51.3335C21.2877 51.3335 21.6978 51.2469 22.0771 51.0793C22.4564 50.9116 22.7965 50.6667 23.0757 50.36C28.257 44.8187 36.1184 38.0613 38.7397 28.1733C41.7184 16.888 38.7397 2 20.873 2Z" stroke="#1A1A1A" stroke-width="2.66667" stroke-miterlimit="10" stroke-linecap="round"/>
</svg>
