<svg width="52" height="54" viewBox="0 0 52 54" fill="none" xmlns="http://www.w3.org/2000/svg">
<path d="M2 23.3333H50M39.3333 2V12.6667M12.6667 2V12.6667M13.6667 32.7067H16.408M35.592 32.7067H38.3333M24.6293 32.7067H27.3707M13.6667 40.9307H16.408M35.592 40.9307H38.3333M24.6293 40.9307H27.3707M39.3333 7.33333H12.6667C9.83769 7.33333 7.12458 8.45714 5.12419 10.4575C3.12381 12.4579 2 15.171 2 18V41.3333C2 44.1623 3.12381 46.8754 5.12419 48.8758C7.12458 50.8762 9.83769 52 12.6667 52H39.3333C42.1623 52 44.8754 50.8762 46.8758 48.8758C48.8762 46.8754 50 44.1623 50 41.3333V18C50 15.171 48.8762 12.4579 46.8758 10.4575C44.8754 8.45714 42.1623 7.33333 39.3333 7.33333Z" stroke="black" stroke-width="2.66667" stroke-linecap="round" stroke-linejoin="round"/>
</svg>
