<svg width="53" height="51" viewBox="0 0 53 51" fill="none" xmlns="http://www.w3.org/2000/svg">
<path d="M42.4713 45.896H48.1726C48.6741 45.9039 49.17 45.7902 49.618 45.5647C50.066 45.3392 50.4528 45.0086 50.7452 44.6011C51.0377 44.1936 51.2271 43.7214 51.2974 43.2248C51.3676 42.7282 51.3165 42.2219 51.1486 41.7493C49.6948 38.6377 47.3933 35.9989 44.5081 34.1358C41.6228 32.2726 38.2708 31.2607 34.8366 31.216M34.8366 23.8587C36.1199 23.859 37.3907 23.6066 38.5765 23.1157C39.7622 22.6248 40.8396 21.9052 41.7472 20.9978C42.6548 20.0905 43.3747 19.0133 43.8659 17.8277C44.3571 16.6421 44.6099 15.3713 44.6099 14.088C44.6134 12.8024 44.3632 11.5288 43.8736 10.3401C43.384 9.15144 42.6646 8.07106 41.7567 7.16091C40.8487 6.25075 39.7701 5.52872 38.5826 5.03619C37.3952 4.54366 36.1222 4.29031 34.8366 4.29067M19.5699 24.1653C22.5079 24.1583 25.3231 22.986 27.3978 20.9058C29.4725 18.8256 30.6373 16.0073 30.6366 13.0693C30.6366 10.1336 29.4704 7.31803 27.3945 5.24213C25.3186 3.16623 22.503 2 19.5673 2C16.6315 2 13.816 3.16623 11.7401 5.24213C9.66415 7.31803 8.49792 10.1336 8.49792 13.0693C8.49791 16.0073 9.66337 18.8253 11.7386 20.905C13.8138 22.9847 16.6293 24.1563 19.5673 24.1627M32.0633 49.0773C33.0025 49.0761 33.9232 48.8148 34.7231 48.3225C35.5231 47.8302 36.1711 47.126 36.5955 46.2881C37.0198 45.4501 37.204 44.511 37.1274 43.5748C37.0509 42.6387 36.7167 41.7419 36.1619 40.984C34.2182 38.4039 31.716 36.297 28.8427 34.8211C25.9693 33.3452 22.7993 32.5384 19.5699 32.4613C16.3404 32.5388 13.1702 33.3459 10.2968 34.8223C7.42341 36.2987 4.92132 38.4061 2.97792 40.9867C2.425 41.7447 2.09232 42.6407 2.0166 43.5759C1.94089 44.5111 2.12509 45.449 2.54887 46.286C2.97265 47.1231 3.61952 47.8268 4.41804 48.3194C5.21657 48.8119 6.13569 49.0742 7.07392 49.0773H32.0633Z" stroke="#1A1A1A" stroke-width="2.66667" stroke-linecap="round" stroke-linejoin="round"/>
</svg>
