<svg width="46" height="54" viewBox="0 0 46 54" fill="none" xmlns="http://www.w3.org/2000/svg">
<path d="M43.7242 5.92659L30.2341 27.7364C29.7301 28.5534 29.4649 29.506 29.471 30.4779V43.7772C29.4665 44.4063 29.2958 45.0219 28.9778 45.5561C28.6597 46.0903 28.2066 46.5224 27.6684 46.8048L17.9324 51.8767C17.7862 51.9611 17.6213 52.0035 17.4544 51.9998C17.2875 51.996 17.1244 51.9462 16.9819 51.8554C16.8393 51.7646 16.7223 51.636 16.6427 51.4826C16.5631 51.3293 16.5237 51.1567 16.5286 50.9823V30.4779C16.5347 29.506 16.2696 28.5534 15.7656 27.7364L2.27546 5.92659C2.07351 5.506 1.97983 5.03773 2.00362 4.56785C2.02742 4.09796 2.16787 3.64264 2.41117 3.24665C2.65446 2.85067 2.99223 2.52766 3.39124 2.3094C3.79025 2.09114 4.23676 1.98514 4.68687 2.00182H41.3128C41.7628 1.98457 42.2093 2.0901 42.6084 2.30801C43.0075 2.52592 43.3454 2.84869 43.5888 3.24453C43.8322 3.64036 43.9727 4.09561 43.9964 4.56543C44.0201 5.03524 43.9263 5.50619 43.7242 5.92659Z" stroke="#1A1A1A" stroke-width="2.66667" stroke-miterlimit="10" stroke-linecap="round"/>
</svg>
